<?xml version="1.0" encoding="UTF-8"?>
<svg version="1.1" xmlns="http://www.w3.org/2000/svg" width="48" height="48">
<path d="M0 0 C3.08198293 2.21634123 4.5131818 4.39434664 5.17578125 8.03515625 C5.38210477 12.08521045 4.45945124 14.7348126 2.11328125 18.09765625 C-1.49134197 21.27820615 -5.00991439 21.66720129 -9.6640625 21.52734375 C-13.47022784 20.79152971 -15.24342581 18.87311384 -17.88671875 16.09765625 C-19.74527157 12.38055062 -19.46580314 8.14488344 -18.88671875 4.09765625 C-13.9914309 -2.38529252 -7.27153086 -3.47768867 0 0 Z " fill="#E3D9B4" transform="translate(31.88671875,13.90234375)"/>
<path d="M0 0 C0.99 0.33 1.98 0.66 3 1 C2.814375 1.556875 2.62875 2.11375 2.4375 2.6875 C1.8342948 5.02745166 1.8342948 5.02745166 2.5625 7.4375 C3.21187846 11.24100239 1.67006869 13.65986262 0 17 C-7.66816143 17.76681614 -7.66816143 17.76681614 -10.93359375 15.88671875 C-12.5625 14.5 -12.5625 14.5 -15 12 C-13.125 6.125 -13.125 6.125 -12 5 C-10.33382885 4.95936168 -8.66611905 4.957279 -7 5 C-7 4.34 -7 3.68 -7 3 C-7.66 2.67 -8.32 2.34 -9 2 C-8.01 1.67 -7.02 1.34 -6 1 C-6 2.32 -6 3.64 -6 5 C-2.83884224 3.63016497 -2.0072908 3.0109362 0 0 Z " fill="#EBB655" transform="translate(29,18)"/>
<path d="M0 0 C-0.33 1.65 -0.66 3.3 -1 5 C-0.34 5.33 0.32 5.66 1 6 C1 6.66 1 7.32 1 8 C-0.65 8.33 -2.3 8.66 -4 9 C-4.33 10.65 -4.66 12.3 -5 14 C-5.99 13.67 -6.98 13.34 -8 13 C-8.05416188 11.39620659 -8.09286638 9.79188594 -8.125 8.1875 C-8.14820313 7.29417969 -8.17140625 6.40085937 -8.1953125 5.48046875 C-8 3 -8 3 -6 0 C-3.39677846 -0.97620808 -2.52782417 -1.26391209 0 0 Z " fill="#CBCAA8" transform="translate(21,15)"/>
<path d="M0 0 C0.99 0.33 1.98 0.66 3 1 C2.814375 1.556875 2.62875 2.11375 2.4375 2.6875 C1.92448835 5.399133 2.3359276 7.34371039 3 10 C2.67 9.34 2.34 8.68 2 8 C-1.96 8 -5.92 8 -10 8 C-10 7.01 -10 6.02 -10 5 C-9.01 5 -8.02 5 -7 5 C-7 4.34 -7 3.68 -7 3 C-7.66 2.67 -8.32 2.34 -9 2 C-8.01 1.67 -7.02 1.34 -6 1 C-6 2.32 -6 3.64 -6 5 C-2.83884224 3.63016497 -2.0072908 3.0109362 0 0 Z " fill="#215136" transform="translate(29,18)"/>
<path d="M0 0 C0.79921875 0.11085938 1.5984375 0.22171875 2.421875 0.3359375 C3.32679687 0.47902344 3.32679687 0.47902344 4.25 0.625 C3.26 0.955 2.27 1.285 1.25 1.625 C1.25 2.615 1.25 3.605 1.25 4.625 C0.26 4.625 -0.73 4.625 -1.75 4.625 C-1.09 4.955 -0.43 5.285 0.25 5.625 C0.25 6.285 0.25 6.945 0.25 7.625 C-2.88349732 8.66949911 -3.73968256 8.55923645 -6.75 7.625 C-6.42 5.975 -6.09 4.325 -5.75 2.625 C-6.74 2.295 -7.73 1.965 -8.75 1.625 C-5.5750906 -0.2828584 -3.64414789 -0.5359041 0 0 Z " fill="#9CAA8B" transform="translate(25.75,12.375)"/>
<path d="M0 0 C0 2.62113708 -0.31292445 4.50935112 -1 7 C-2.45792884 7.05399736 -3.91642712 7.09279177 -5.375 7.125 C-6.18710937 7.14820313 -6.99921875 7.17140625 -7.8359375 7.1953125 C-10 7 -10 7 -12 5 C-11.625 2.875 -11.625 2.875 -11 1 C-9.515 1.99 -9.515 1.99 -8 3 C-3.49149818 2.65554402 -3.49149818 2.65554402 0 0 Z " fill="#2F5A3D" transform="translate(30,28)"/>
<path d="M0 0 C1.9375 0.5 1.9375 0.5 4 2 C5.14891386 6.59565545 5.3865114 8.90149392 3.8125 13.375 C1.99860466 16.00202083 0.97343996 16.97467587 -2 18 C-0.125 14.125 -0.125 14.125 1 13 C1.09886353 11.37747508 1.12971167 9.75052727 1.125 8.125 C1.12757812 7.24070312 1.13015625 6.35640625 1.1328125 5.4453125 C1.10048585 2.86093709 1.10048585 2.86093709 0 0 Z " fill="#9AAC99" transform="translate(32,16)"/>
<path d="M0 0 C2.97 0.495 2.97 0.495 6 1 C4.02 1.99 4.02 1.99 2 3 C2 5.31 2 7.62 2 10 C0.68 9.34 -0.64 8.68 -2 8 C-2 4.79604584 -1.25664978 2.90600261 0 0 Z " fill="#919B71" transform="translate(17,23)"/>
<path d="M0 0 C0.99 0.33 1.98 0.66 3 1 C2.0022242 3.99332739 1.2477975 4.94766315 -1 7 C-1.99 6.67 -2.98 6.34 -4 6 C-2.68 4.02 -1.36 2.04 0 0 Z " fill="#737243" transform="translate(29,18)"/>
<path d="M0 0 C1.98 0.99 1.98 0.99 4 2 C4.83886169 4.67790463 4.81766414 7.1737941 5 10 C4.34 10 3.68 10 3 10 C2.01 6.7 1.02 3.4 0 0 Z " fill="#8DA79B" transform="translate(32,16)"/>
<path d="M0 0 C1.65 0.33 3.3 0.66 5 1 C3.6875 3.5 3.6875 3.5 2 6 C1.01 6 0.02 6 -1 6 C0 3 0 3 1 2 C0.67 1.34 0.34 0.68 0 0 Z " fill="#D4D0B1" transform="translate(24,17)"/>
<path d="M0 0 C2.31 0.66 4.62 1.32 7 2 C7 2.66 7 3.32 7 4 C3.86650268 5.04449911 3.01031744 4.93423645 0 4 C0 2.68 0 1.36 0 0 Z " fill="#668876" transform="translate(19,16)"/>
<path d="M0 0 C1.98 0 3.96 0 6 0 C6.33 0.99 6.66 1.98 7 3 C4.69 3 2.38 3 0 3 C0 2.01 0 1.02 0 0 Z " fill="#746E38" transform="translate(21,31)"/>
<path d="M0 0 C0.99 0.66 1.98 1.32 3 2 C2.67 3.32 2.34 4.64 2 6 C2 5.34 2 4.68 2 4 C0.02 4 -1.96 4 -4 4 C-3.01 3.67 -2.02 3.34 -1 3 C-0.67 2.01 -0.34 1.02 0 0 Z " fill="#375D3C" transform="translate(29,22)"/>
</svg>
